<svg width="231" height="49" viewBox="0 0 231 49" fill="none" xmlns="http://www.w3.org/2000/svg">
<path d="M18.712 46.936L15.064 46.872C14.552 46.872 14.04 46.872 13.528 46.872L1.88 47.448C1.24 47.448 0.92 47.2347 0.92 46.808C0.92 46.68 0.984 46.3813 1.112 45.912C1.53867 44.9307 1.83733 41.816 2.008 36.568C2.22133 31.32 2.328 26.5413 2.328 22.232C2.328 17.88 2.24267 14.36 2.072 11.672C1.816 7.61867 1.38933 5.18667 0.792 4.376C0.322667 3.77867 0.0880001 3.39467 0.0880001 3.224C0.0880001 2.54133 1.24 1.944 3.544 1.432C5.848 0.919998 7.49067 0.663998 8.472 0.663998C9.496 0.663998 10.136 0.727998 10.392 0.855999C10.648 0.941331 10.776 1.15466 10.776 1.496C10.776 1.83733 10.6907 2.92533 10.52 4.76C10.0933 10.1787 9.88 16.4933 9.88 23.704C9.88 30.872 10.0507 36.6107 10.392 40.92C10.392 41.3893 10.7973 41.7947 11.608 42.136C12.4187 42.4773 13.4213 42.648 14.616 42.648C18.7973 42.648 20.888 39.4267 20.888 32.984C20.888 31.192 20.7813 30.0827 20.568 29.656C20.3973 29.2293 20.312 28.952 20.312 28.824C20.312 28.3973 20.6107 28.184 21.208 28.184C21.6773 28.184 22.296 28.4187 23.064 28.888C23.8747 29.3573 24.536 29.9547 25.048 30.68C25.56 31.3627 26.0293 32.472 26.456 34.008C26.8827 35.5013 27.096 37.272 27.096 39.32C27.096 44.3973 26.4773 46.936 25.24 46.936C23.064 46.936 20.888 46.936 18.712 46.936ZM36.0745 12.76L34.5385 12.696C33.3865 12.696 32.6398 12.9733 32.2985 13.528C32.2132 13.656 32.1065 13.72 31.9785 13.72C31.4238 13.72 31.1465 12.7813 31.1465 10.904C31.1465 8.984 31.4238 7.768 31.9785 7.256C32.5758 6.744 33.5785 6.488 34.9865 6.488C36.4372 6.488 37.4185 6.744 37.9305 7.256C38.4425 7.72533 38.6985 8.536 38.6985 9.688C38.6985 10.84 38.5065 11.6507 38.1225 12.12C37.7385 12.5467 37.0558 12.76 36.0745 12.76ZM30.9545 45.08L31.6585 30.168C31.6585 26.6267 31.2532 24.216 30.4425 22.936C30.1865 22.5093 29.8878 22.1893 29.5465 21.976C29.2905 21.8907 29.1625 21.72 29.1625 21.464C29.1625 20.696 30.2505 19.9493 32.4265 19.224C34.6025 18.4987 36.1812 18.136 37.1625 18.136C38.1865 18.136 38.7198 18.392 38.7625 18.904C38.7625 19.7573 38.6345 22.1893 38.3785 26.2C38.1652 30.168 38.0585 34.3493 38.0585 38.744C38.0585 43.1387 38.3145 45.8693 38.8265 46.936C38.9545 47.1493 39.0185 47.3627 39.0185 47.576C39.0185 48.1307 38.2078 48.408 36.5865 48.408C34.9652 48.408 33.3012 47.9813 31.5945 47.128C31.1678 46.9147 30.9545 46.232 30.9545 45.08ZM42.92 47.448C43.688 42.84 44.072 37.3147 44.072 30.872C44.072 24.4293 43.88 20.248 43.496 18.328C43.496 17.7733 44.136 17.496 45.416 17.496C47.3787 17.496 48.68 18.2427 49.32 19.736C49.3627 19.864 49.4693 19.928 49.64 19.928C49.8107 19.928 49.9387 19.8853 50.024 19.8C51.3467 18.4347 53.3947 17.752 56.168 17.752C58.9413 17.752 61.1387 18.456 62.76 19.864C64.3813 21.272 65.192 23.32 65.192 26.008C65.192 27.6293 65.0427 29.9333 64.744 32.92C64.488 35.9067 64.36 38.1253 64.36 39.576C64.36 43.032 64.936 45.528 66.088 47.064C66.2587 47.2773 66.344 47.4907 66.344 47.704C66.344 48.2587 65.7467 48.536 64.552 48.536C59.2613 48.536 56.616 46.1893 56.616 41.496C56.616 39.704 57.0213 37.208 57.832 34.008C58.6427 30.808 59.048 28.376 59.048 26.712C59.048 23.2987 57.64 21.592 54.824 21.592C53.4587 21.592 52.4133 21.9973 51.688 22.808C51.0053 23.6187 50.6213 24.5573 50.536 25.624C50.4507 26.648 50.408 28.6107 50.408 31.512C50.408 35.9493 50.5573 39.8107 50.856 43.096L50.984 44.504C50.984 45.6987 50.1947 46.616 48.616 47.256C47.08 47.9387 45.736 48.28 44.584 48.28C43.4747 48.28 42.92 48.0027 42.92 47.448ZM82.3065 26.264C82.1358 26.4347 82.0505 26.6267 82.0505 26.84C82.0505 27.0107 82.4345 27.1813 83.2025 27.352C84.0132 27.5227 84.8878 27.992 85.8265 28.76C86.7652 29.528 87.4692 30.36 87.9385 31.256C88.8345 33.0053 89.3252 34.5413 89.4105 35.864L89.4745 36.696C89.6878 41.688 90.6052 45.1013 92.2265 46.936C92.4398 47.2347 92.5465 47.448 92.5465 47.576C92.5465 48.0453 91.9492 48.28 90.7545 48.28C87.1705 48.28 84.8878 47.5333 83.9065 46.04C83.3945 45.4427 83.1385 43.5867 83.1385 40.472V38.872C83.1385 34.904 82.6478 32.152 81.6665 30.616C81.1545 29.8907 80.5145 29.528 79.7465 29.528C79.0212 29.528 78.2532 30.1893 77.4425 31.512C76.6318 32.792 76.2265 33.88 76.2265 34.776C76.2265 38.36 76.3118 40.856 76.4825 42.264C76.6532 43.672 76.7385 44.3973 76.7385 44.44C76.7385 45.6773 75.8852 46.6373 74.1785 47.32C72.5145 48.0027 70.9358 48.344 69.4425 48.344C68.8878 48.344 68.6105 48.0027 68.6105 47.32V47.064C69.6345 41.816 70.1465 33.5387 70.1465 22.232C70.1465 18.52 70.0612 15.384 69.8905 12.824L69.7625 11.544C69.6772 10.3493 69.4212 9.32533 68.9945 8.472C68.6105 7.61866 68.2265 7.064 67.8425 6.808L67.3305 6.488C67.0318 6.31733 66.8825 6.12533 66.8825 5.912C66.8825 5.22933 67.9065 4.46133 69.9545 3.608C72.0025 2.75467 73.7732 2.328 75.2665 2.328C75.9492 2.37067 76.3118 2.62666 76.3545 3.096C76.5678 4.80266 76.6745 8.32266 76.6745 13.656C76.6745 18.9467 76.5465 23.1707 76.2905 26.328C76.2905 26.84 76.3758 27.096 76.5465 27.096C76.7172 27.096 76.9732 26.8613 77.3145 26.392C77.6985 25.88 78.3385 25.0907 79.2345 24.024C80.1732 22.9573 81.4105 21.72 82.9465 20.312C84.5252 18.904 85.7838 18.2 86.7225 18.2C87.7038 18.2 88.6638 18.4347 89.6025 18.904C90.5412 19.3733 91.0105 19.8213 91.0105 20.248L90.3065 20.696C87.8745 21.592 85.2078 23.448 82.3065 26.264ZM125.585 11.544L125.841 9.56C125.841 7.59733 125.073 6.33866 123.537 5.784C122.342 5.4 121.425 5.208 120.785 5.208H120.721C119.441 5.208 118.331 5.42133 117.393 5.848C116.454 6.232 115.771 6.72267 115.345 7.32C114.449 8.55733 113.937 9.85867 113.809 11.224C113.809 12.8453 114.534 14.2533 115.985 15.448C117.435 16.6 119.185 17.624 121.233 18.52C123.323 19.3733 125.393 20.312 127.441 21.336C129.531 22.36 131.302 23.832 132.753 25.752C134.203 27.672 134.929 29.976 134.929 32.664C134.929 37.912 133.265 41.8373 129.937 44.44C126.651 47.0427 122.897 48.344 118.673 48.344C114.491 48.344 111.014 47.4053 108.241 45.528C105.51 43.608 104.145 41.048 104.145 37.848V37.784C104.145 36.2053 104.379 34.84 104.849 33.688C105.361 32.4933 105.958 31.6187 106.641 31.064C108.049 29.912 109.329 29.2933 110.481 29.208L111.249 29.144C112.443 29.144 113.531 29.4427 114.513 30.04C115.494 30.5947 115.985 31.384 115.985 32.408C115.985 32.92 115.707 33.3467 115.153 33.688C114.598 34.0293 114.107 34.5413 113.681 35.224C113.297 35.9067 113.083 36.4827 113.041 36.952L112.913 37.656C112.913 40.2587 114.107 41.9867 116.497 42.84C117.35 43.1387 118.033 43.288 118.545 43.288C120.891 43.288 122.769 42.584 124.177 41.176C125.627 39.768 126.353 37.976 126.353 35.8C126.353 33.1973 125.243 31.0853 123.025 29.464C121.361 28.2693 119.547 27.2667 117.585 26.456C115.665 25.6453 114.363 25.0693 113.681 24.728C112.998 24.3867 112.273 23.9813 111.505 23.512C110.737 23.0427 109.883 22.3813 108.945 21.528C106.897 19.736 105.873 17.3253 105.873 14.296C105.873 11.224 106.705 8.64267 108.369 6.552C111.355 2.75467 115.835 0.855999 121.809 0.855999C124.966 0.855999 127.633 1.47467 129.809 2.712C131.985 3.90666 133.073 5.57066 133.073 7.704C133.073 9.24 132.625 10.52 131.729 11.544C130.875 12.568 129.766 13.08 128.401 13.08C127.761 13.08 127.121 12.952 126.481 12.696C125.883 12.44 125.585 12.056 125.585 11.544ZM159.234 27.8L159.106 35.992C159.106 41.6667 159.724 45.08 160.962 46.232C161.132 46.4027 161.218 46.5947 161.218 46.808C161.218 47.448 159.831 47.768 157.058 47.768C154.327 47.768 152.876 46.9573 152.706 45.336C152.663 44.952 152.642 44.1627 152.642 42.968L152.898 32.728C152.898 32.4293 152.727 32.28 152.385 32.28C150.338 32.28 148.418 32.856 146.626 34.008C144.834 35.16 143.938 36.632 143.938 38.424C143.938 39.3627 144.194 40.152 144.706 40.792C145.218 41.432 145.836 41.752 146.562 41.752C147.33 41.752 147.948 41.6027 148.418 41.304C148.93 41.0053 149.228 40.8347 149.314 40.792C150.039 40.8773 150.402 41.6453 150.402 43.096C150.402 44.504 149.74 45.656 148.418 46.552C147.095 47.4053 145.708 47.832 144.258 47.832C142.807 47.832 141.548 47.576 140.482 47.064C139.458 46.552 138.711 45.976 138.242 45.336C137.772 44.696 137.388 43.9707 137.09 43.16C136.791 42.1787 136.642 41.3253 136.642 40.6C136.642 37.6133 137.58 35.224 139.458 33.432C141.335 31.64 143.746 30.36 146.69 29.592C150.572 28.824 152.599 28.12 152.77 27.48C152.898 27.0107 152.962 26.2213 152.962 25.112C152.962 22.8507 151.81 21.72 149.506 21.72C148.524 21.72 147.65 22.04 146.882 22.68C146.114 23.2773 145.73 24.0453 145.73 24.984L146.114 26.52C146.028 27.2453 145.26 27.672 143.81 27.8L143.106 27.864C141.826 27.864 140.802 27.544 140.034 26.904C139.308 26.264 138.946 25.4107 138.946 24.344C138.946 23.6613 139.159 22.9147 139.586 22.104C140.055 21.2507 140.631 20.568 141.314 20.056C141.996 19.544 143.042 19.096 144.45 18.712C145.9 18.2853 147.287 18.072 148.61 18.072C149.932 18.072 150.956 18.1147 151.682 18.2C152.407 18.2853 153.388 18.4987 154.626 18.84C155.906 19.1387 156.951 19.736 157.762 20.632C158.615 21.528 159.063 22.488 159.106 23.512C159.191 24.4933 159.234 25.9227 159.234 27.8ZM177.508 19.352C179.342 18.456 181.156 18.008 182.948 18.008C184.74 18.008 185.636 19.864 185.636 23.576C185.636 26.3067 185.124 29.08 184.1 31.896C183.118 34.712 181.881 37.1867 180.388 39.32C177.316 43.8 174.542 46.7867 172.068 48.28C171.47 48.6213 171.022 48.792 170.724 48.792C170.425 48.792 170.105 48.472 169.764 47.832C169.465 47.192 168.974 45.784 168.292 43.608C167.652 41.432 167.118 39.4907 166.692 37.784L166.116 35.16C165.262 31.4053 164.43 28.4187 163.62 26.2C162.809 23.9387 162.212 22.6373 161.828 22.296L161.188 21.72C160.761 21.5067 160.547 21.2507 160.547 20.952L160.867 20.376C161.422 19.864 162.34 19.352 163.62 18.84C164.942 18.2853 166.393 18.008 167.972 18.008C168.697 18.008 169.145 18.4133 169.316 19.224C169.956 21.1867 170.51 23.4907 170.98 26.136C171.449 28.7813 172.068 31.768 172.836 35.096C173.646 38.424 174.308 40.1093 174.82 40.152C175.076 40.152 175.353 39.96 175.652 39.576C175.993 39.192 176.377 38.68 176.804 38.04C177.273 37.4 177.828 36.1627 178.468 34.328C179.15 32.4933 179.492 30.936 179.492 29.656C179.492 28.3333 179.428 27.3307 179.3 26.648C179.214 25.9227 178.852 25.0907 178.212 24.152C177.572 23.2133 176.846 22.68 176.036 22.552C175.225 22.3813 174.82 22.104 174.82 21.72C174.82 21.0373 175.716 20.248 177.508 19.352ZM193.938 30.744L194.002 32.344C194.002 32.6 194.172 32.728 194.514 32.728C195.879 32.6 197.074 32.2587 198.098 31.704C199.122 31.1067 199.89 30.4453 200.402 29.72C201.426 28.1413 201.98 26.776 202.066 25.624L202.13 24.856C202.13 22.552 201.212 21.4 199.378 21.4C198.012 21.4 196.903 21.9973 196.05 23.192C194.642 25.0693 193.938 27.5867 193.938 30.744ZM207.89 39.256C207.89 40.8773 207.548 42.3067 206.866 43.544C206.226 44.7387 205.479 45.6347 204.626 46.232C203.815 46.7867 202.855 47.2347 201.746 47.576C200.338 48.0027 198.994 48.216 197.714 48.216C194.13 48.216 191.484 46.872 189.778 44.184C188.071 41.496 187.218 38.0827 187.218 33.944C187.218 29.7627 188.263 26.0507 190.354 22.808C192.487 19.5653 195.666 17.944 199.89 17.944C203.73 17.944 206.332 19.288 207.698 21.976C208.252 23 208.53 23.9813 208.53 24.92C208.53 25.816 208.487 26.5413 208.402 27.096C208.316 27.608 208.018 28.3973 207.506 29.464C206.994 30.5307 206.311 31.4907 205.458 32.344C204.604 33.1973 203.26 34.008 201.426 34.776C199.591 35.544 197.436 36.056 194.962 36.312C194.62 36.312 194.45 36.4613 194.45 36.76C194.45 37.144 194.578 37.72 194.834 38.488C195.132 39.2133 195.452 39.832 195.794 40.344C196.732 41.5387 198.119 42.136 199.954 42.136C201.788 42.136 203.346 41.5387 204.626 40.344C205.308 39.704 205.863 38.9147 206.29 37.976C206.46 37.6347 206.674 37.464 206.93 37.464C207.228 37.464 207.463 37.6987 207.634 38.168C207.804 38.6373 207.89 39 207.89 39.256ZM230.315 29.848L230.571 32.088C230.571 32.8987 229.803 33.304 228.267 33.304C225.152 33.304 223.595 32.1307 223.595 29.784C223.595 29.2293 223.744 28.4613 224.043 27.48C224.342 26.4987 224.491 25.6453 224.491 24.92C224.491 24.1947 224.278 23.576 223.851 23.064C223.424 22.5093 222.806 22.232 221.995 22.232C221.184 22.232 220.48 22.5307 219.883 23.128C219.328 23.6827 218.987 24.2587 218.859 24.856L218.603 25.752C218.347 27.0747 218.219 29.2933 218.219 32.408C218.219 35.48 218.262 37.912 218.347 39.704C218.432 41.4533 218.518 42.6693 218.603 43.352C218.688 43.992 218.731 44.376 218.731 44.504C218.731 45.5707 218.07 46.424 216.747 47.064C215.424 47.7467 214.102 48.088 212.779 48.088C211.456 48.088 210.795 47.8107 210.795 47.256L211.115 45.272C211.712 41.56 212.011 36.7173 212.011 30.744C212.011 24.7707 211.798 20.7173 211.371 18.584C211.371 18.072 211.819 17.816 212.715 17.816C215.019 17.816 216.555 18.6053 217.323 20.184C217.366 20.3547 217.43 20.44 217.515 20.44C217.643 20.44 217.942 20.248 218.411 19.864C219.819 18.712 221.483 18.136 223.403 18.136C224.598 18.136 225.792 18.3707 226.987 18.84C229.419 19.8213 230.635 21.8693 230.635 24.984L230.315 29.848Z" fill="#FF5722"/>
</svg>
